<?xml version="1.0" encoding="UTF-8"?>
<svg version="1.1" xmlns="http://www.w3.org/2000/svg" width="500" height="500">
<path d="M0 0 C1.88931337 0.13841742 3.78183694 0.23163673 5.67431641 0.31640625 C34.98362055 1.80607863 64.82799123 12.51523801 89.96337891 27.27734375 C92.34544378 28.6690471 94.69825033 29.97549681 97.18603516 31.16015625 C97.18603516 31.82015625 97.18603516 32.48015625 97.18603516 33.16015625 C97.80478516 33.30453125 98.42353516 33.44890625 99.06103516 33.59765625 C101.18603516 34.16015625 101.18603516 34.16015625 103.18603516 35.16015625 C103.18603516 35.82015625 103.18603516 36.48015625 103.18603516 37.16015625 C104.28044922 37.54494141 104.28044922 37.54494141 105.39697266 37.9375 C108.3243566 39.22079296 110.35413776 40.68893684 112.81103516 42.72265625 C113.66697266 43.42777344 114.52291016 44.13289063 115.40478516 44.859375 C116.32259766 45.61863281 117.24041016 46.37789062 118.18603516 47.16015625 C119.20697266 47.97097656 120.22791016 48.78179687 121.27978516 49.6171875 C122.28009766 50.41511719 123.28041016 51.21304688 124.31103516 52.03515625 C125.24173828 52.77507812 126.17244141 53.515 127.13134766 54.27734375 C127.80939453 54.89867187 128.48744141 55.52 129.18603516 56.16015625 C129.18603516 56.82015625 129.18603516 57.48015625 129.18603516 58.16015625 C129.84603516 58.16015625 130.50603516 58.16015625 131.18603516 58.16015625 C133.81103516 60.53515625 133.81103516 60.53515625 136.18603516 63.16015625 C136.18603516 63.82015625 136.18603516 64.48015625 136.18603516 65.16015625 C136.84603516 65.16015625 137.50603516 65.16015625 138.18603516 65.16015625 C138.84603516 66.81015625 139.50603516 68.46015625 140.18603516 70.16015625 C140.84603516 70.16015625 141.50603516 70.16015625 142.18603516 70.16015625 C142.18603516 70.82015625 142.18603516 71.48015625 142.18603516 72.16015625 C142.84603516 72.16015625 143.50603516 72.16015625 144.18603516 72.16015625 C145.42285156 73.50537109 145.42285156 73.50537109 146.78759766 75.37109375 C147.27744141 76.03882812 147.76728516 76.7065625 148.27197266 77.39453125 C148.77986328 78.1009375 149.28775391 78.80734375 149.81103516 79.53515625 C150.58447266 80.58316406 150.58447266 80.58316406 151.37353516 81.65234375 C155.18603516 86.89705274 155.18603516 86.89705274 155.18603516 89.16015625 C155.84603516 89.16015625 156.50603516 89.16015625 157.18603516 89.16015625 C180.9480699 120.82245512 191.74816941 162.28596624 193.18603516 201.16015625 C193.2358252 202.37106934 193.2358252 202.37106934 193.28662109 203.60644531 C194.31945603 232.15604318 188.7840962 258.45362872 179.18603516 285.16015625 C178.57115234 286.88685547 178.57115234 286.88685547 177.94384766 288.6484375 C172.86852435 301.74425348 165.33246999 314.20927254 157.62353516 325.91015625 C156.99765503 326.86692261 156.99765503 326.86692261 156.35913086 327.84301758 C155.35809606 329.32204078 154.27938266 330.74800487 153.18603516 332.16015625 C152.52603516 332.16015625 151.86603516 332.16015625 151.18603516 332.16015625 C150.84572266 332.93359375 150.84572266 332.93359375 150.49853516 333.72265625 C148.70385898 337.0556263 146.686385 340.30719296 144.18603516 343.16015625 C143.52603516 343.16015625 142.86603516 343.16015625 142.18603516 343.16015625 C141.84572266 343.96453125 141.84572266 343.96453125 141.49853516 344.78515625 C139.73033426 347.98475786 137.64933313 350.45052848 135.18603516 353.16015625 C134.52603516 353.16015625 133.86603516 353.16015625 133.18603516 353.16015625 C133.18603516 353.82015625 133.18603516 354.48015625 133.18603516 355.16015625 C132.52603516 355.16015625 131.86603516 355.16015625 131.18603516 355.16015625 C130.92951172 355.75183594 130.67298828 356.34351563 130.40869141 356.953125 C126.77208791 363.51760096 118.30252811 368.98520567 112.18603516 373.16015625 C111.52603516 373.16015625 110.86603516 373.16015625 110.18603516 373.16015625 C110.18603516 373.82015625 110.18603516 374.48015625 110.18603516 375.16015625 C94.74010963 387.1544783 76.61326984 396.55502514 58.16650391 402.765625 C55.62093171 403.62713306 53.27508897 404.56923857 50.81103516 405.67578125 C46.28946076 407.52728801 41.75222205 408.63321622 36.99853516 409.72265625 C36.0667041 409.93954102 35.13487305 410.15642578 34.17480469 410.37988281 C18.2838686 414.02553186 2.83288288 415.37163965 -13.43896484 415.34765625 C-14.19574524 415.347052 -14.95252563 415.34644775 -15.73223877 415.3458252 C-26.56345477 415.3223258 -37.12548758 415.06997554 -47.81396484 413.16015625 C-48.58240723 413.03125 -49.35084961 412.90234375 -50.14257812 412.76953125 C-61.74664023 410.8017374 -72.78021562 407.90403223 -83.83740234 403.87744141 C-85.60359184 403.23649962 -87.38007621 402.62409243 -89.15771484 402.015625 C-107.64451856 395.40986054 -124.35033893 384.63776418 -140.18896484 373.22265625 C-140.85057617 372.74965088 -141.5121875 372.27664551 -142.19384766 371.78930664 C-143.77256889 370.63052525 -145.2991366 369.40129703 -146.81396484 368.16015625 C-146.81396484 367.50015625 -146.81396484 366.84015625 -146.81396484 366.16015625 C-148.46396484 365.50015625 -150.11396484 364.84015625 -151.81396484 364.16015625 C-151.81396484 363.50015625 -151.81396484 362.84015625 -151.81396484 362.16015625 C-152.47396484 362.16015625 -153.13396484 362.16015625 -153.81396484 362.16015625 C-156.43896484 359.78515625 -156.43896484 359.78515625 -158.81396484 357.16015625 C-158.81396484 356.50015625 -158.81396484 355.84015625 -158.81396484 355.16015625 C-160.13396484 354.50015625 -161.45396484 353.84015625 -162.81396484 353.16015625 C-162.81396484 352.50015625 -162.81396484 351.84015625 -162.81396484 351.16015625 C-163.47396484 351.16015625 -164.13396484 351.16015625 -164.81396484 351.16015625 C-164.81396484 350.50015625 -164.81396484 349.84015625 -164.81396484 349.16015625 C-165.47396484 349.16015625 -166.13396484 349.16015625 -166.81396484 349.16015625 C-169.81396484 345.69861779 -169.81396484 345.69861779 -169.81396484 343.16015625 C-170.47396484 343.16015625 -171.13396484 343.16015625 -171.81396484 343.16015625 C-171.81396484 342.50015625 -171.81396484 341.84015625 -171.81396484 341.16015625 C-172.47396484 341.16015625 -173.13396484 341.16015625 -173.81396484 341.16015625 C-174.47396484 339.51015625 -175.13396484 337.86015625 -175.81396484 336.16015625 C-176.47396484 336.16015625 -177.13396484 336.16015625 -177.81396484 336.16015625 C-179.23095703 334.40698242 -179.23095703 334.40698242 -180.86083984 331.953125 C-181.45896484 331.05529297 -182.05708984 330.15746094 -182.67333984 329.23242188 C-183.29724609 328.28044922 -183.92115234 327.32847656 -184.56396484 326.34765625 C-185.47662109 324.98350586 -185.47662109 324.98350586 -186.40771484 323.59179688 C-190.57433155 317.29290516 -194.30097263 310.84336025 -197.81396484 304.16015625 C-198.37083984 303.1134375 -198.92771484 302.06671875 -199.50146484 300.98828125 C-224.18607646 252.5006513 -227.32111841 196.92293284 -211.81396484 145.16015625 C-211.47365234 144.02191406 -211.13333984 142.88367188 -210.78271484 141.7109375 C-208.63074531 134.93396893 -205.85742628 128.57719002 -202.81396484 122.16015625 C-202.19516189 120.80021307 -201.5780962 119.4394786 -200.96240234 118.078125 C-194.97319661 104.93180374 -187.44007038 93.39065959 -178.95800781 81.73583984 C-177.93494255 80.32677812 -176.92255126 78.90998074 -175.91162109 77.4921875 C-175.38439453 76.76386719 -174.85716797 76.03554687 -174.31396484 75.28515625 C-173.87052734 74.66898437 -173.42708984 74.0528125 -172.97021484 73.41796875 C-172.58865234 73.00289063 -172.20708984 72.5878125 -171.81396484 72.16015625 C-171.15396484 72.16015625 -170.49396484 72.16015625 -169.81396484 72.16015625 C-169.56775391 71.58942383 -169.32154297 71.01869141 -169.06787109 70.43066406 C-167.60497488 67.78172815 -165.88751165 65.97467079 -163.75146484 63.83203125 C-162.55650391 62.63320312 -162.55650391 62.63320312 -161.33740234 61.41015625 C-160.50466797 60.58515625 -159.67193359 59.76015625 -158.81396484 58.91015625 C-157.56486328 57.64945313 -157.56486328 57.64945313 -156.29052734 56.36328125 C-155.49388672 55.56921875 -154.69724609 54.77515625 -153.87646484 53.95703125 C-153.14556641 53.22838867 -152.41466797 52.49974609 -151.66162109 51.74902344 C-149.81396484 50.16015625 -149.81396484 50.16015625 -147.81396484 50.16015625 C-147.81396484 49.50015625 -147.81396484 48.84015625 -147.81396484 48.16015625 C-145.766837 46.38223164 -143.72153924 44.73085228 -141.56396484 43.09765625 C-140.97744141 42.63810547 -140.39091797 42.17855469 -139.78662109 41.70507812 C-136.82562647 39.43941819 -134.46169414 37.89376395 -130.81396484 37.16015625 C-130.81396484 36.50015625 -130.81396484 35.84015625 -130.81396484 35.16015625 C-129.43139648 34.05029297 -129.43139648 34.05029297 -127.47412109 32.83984375 C-126.74950684 32.39084717 -126.02489258 31.94185059 -125.27832031 31.47924805 C-124.48570801 31.00269775 -123.6930957 30.52614746 -122.87646484 30.03515625 C-122.06322754 29.54378174 -121.24999023 29.05240723 -120.41210938 28.54614258 C-84.27626324 7.08065302 -41.88709059 -3.20960792 0 0 Z " fill="#FCD60B" transform="translate(266.81396484375,31.83984375)"/>
<path d="M0 0 C44.88 0 89.76 0 136 0 C136.08060607 54.18519045 136.08060607 54.18519045 136.09765625 76.90625 C136.10951951 92.58920603 136.1234595 108.27214055 136.15087891 123.95507812 C136.1708395 135.37730353 136.18372279 146.79951147 136.18817699 158.22175384 C136.19077983 164.26736726 136.19687952 170.31293075 136.21146011 176.35852814 C136.22508617 182.05476832 136.22921249 187.75093821 136.22621536 193.44719315 C136.22676328 195.53203082 136.23071065 197.61687096 136.23841095 199.70169449 C136.33262353 226.53715238 131.06815506 250.78848519 111.63671875 270.4453125 C103.27585312 278.54606231 94.98736153 284.90393351 84.3125 289.625 C83.42546387 290.01888916 82.53842773 290.41277832 81.62451172 290.81860352 C66.03734365 297.58802611 49.8994711 299.35453281 33 299.25 C31.12441406 299.26160156 31.12441406 299.26160156 29.2109375 299.2734375 C16.91029944 299.24797034 5.21256122 297.91527989 -6.4375 293.875 C-7.32928955 293.57005615 -8.2210791 293.2651123 -9.13989258 292.95092773 C-21.41315233 288.60642076 -32.28353254 282.7767055 -42 274 C-42.75667969 273.33613281 -43.51335937 272.67226563 -44.29296875 271.98828125 C-50.89647529 265.83940511 -55.38697248 258.66985298 -60 251 C-60.515625 250.25878906 -61.03125 249.51757812 -61.5625 248.75390625 C-63.80901013 244.45013005 -64.88941495 239.86595897 -66.125 235.1875 C-66.38925781 234.22779297 -66.65351563 233.26808594 -66.92578125 232.27929688 C-69.95738952 221.00694633 -70 210.93873268 -70 199 C-46.9 199 -23.8 199 0 199 C0.99 207.91 0.99 207.91 2 217 C5.18784126 225.2352566 8.45459613 230.06633501 16.625 233.75 C24.99777591 236.85102811 33.09321169 236.96706399 41.609375 234.1015625 C48.84831792 230.76597116 53.18368213 225.31924418 56 218 C57.10427084 214.68718749 57.13859403 212.20720525 57.15821838 208.71687317 C57.1680072 207.40014114 57.17779602 206.08340912 57.18788147 204.72677612 C57.19378571 203.26422155 57.19959615 201.8016666 57.20532227 200.33911133 C57.21490062 198.80173987 57.22491067 197.26437105 57.23532104 195.727005 C57.26238085 191.54964678 57.2833846 187.37227724 57.30332303 183.19487977 C57.32517593 178.83063837 57.35256803 174.46643188 57.37937927 170.10221863 C57.42931556 161.83625086 57.47425093 153.57026372 57.51740164 145.30425805 C57.566766 135.89442913 57.6216871 126.48463524 57.67708123 117.07484019 C57.79091566 97.71659117 57.89701794 78.35831 58 59 C38.86 59 19.72 59 0 59 C0 39.53 0 20.06 0 0 Z " fill="#020100" transform="translate(210,98)"/>
<path d="M0 0 C1.90562219 3.26145252 2.35848375 5.94995874 2.6328125 9.69921875 C2.71692383 10.81707764 2.80103516 11.93493652 2.88769531 13.08666992 C2.96600586 14.27494385 3.04431641 15.46321777 3.125 16.6875 C3.2084668 17.91122314 3.29193359 19.13494629 3.37792969 20.39575195 C4.73552809 41.37895904 4.11844231 62.32693562 0 83 C-0.33 83 -0.66 83 -1 83 C-1.02696009 80.2291017 -1.04681952 77.4584655 -1.0625 74.6875 C-1.07087891 73.90181641 -1.07925781 73.11613281 -1.08789062 72.30664062 C-1.09111328 71.54931641 -1.09433594 70.79199219 -1.09765625 70.01171875 C-1.10289307 69.31522217 -1.10812988 68.61872559 -1.11352539 67.90112305 C-1 66 -1 66 0 63 C0.37597191 58.447254 0.47946147 53.87783897 0.625 49.3125 C0.64779022 48.63758514 0.67058044 47.96267029 0.69406128 47.26730347 C1.2064145 31.48826244 0.69412425 15.76653651 0 0 Z " fill="#F6DD4F" transform="translate(456,202)"/>
<path d="M0 0 C0.94988393 3.43472522 0.97694996 6.12519563 0.625 9.6875 C0.53476562 10.66074219 0.44453125 11.63398438 0.3515625 12.63671875 C0 15 0 15 -1 16 C-1.18596387 17.87144591 -1.3233776 19.74780304 -1.4375 21.625 C-1.7888749 26.36019508 -2.67305178 30.4386155 -4 35 C-5.44197791 44.64903942 -5.11485028 54.46121287 -5.0625 64.1875 C-5.05747294 65.82356633 -5.05291217 67.45963417 -5.04882812 69.09570312 C-5.03792277 73.06383986 -5.0207253 77.03190291 -5 81 C-5.33 81 -5.66 81 -6 81 C-6.90975247 76.31388197 -7.18834502 71.74046879 -7.23828125 66.98046875 C-7.2527681 65.82879463 -7.2527681 65.82879463 -7.26754761 64.65385437 C-7.29237662 62.16502028 -7.30495087 59.67644469 -7.3125 57.1875 C-7.31545074 56.33907532 -7.31840149 55.49065063 -7.32144165 54.61651611 C-7.33634247 35.76542714 -4.71682573 18.25906495 0 0 Z " fill="#F8E467" transform="translate(53,184)"/>
<path d="M0 0 C1 2 1 2 0.390625 4.1171875 C-6.20714518 20.06933047 -15.1347264 34.87618097 -25 49 C-25.66 48.67 -26.32 48.34 -27 48 C-27 45.69 -27 43.38 -27 41 C-26.0409375 40.8453125 -26.0409375 40.8453125 -25.0625 40.6875 C-24.0415625 40.3471875 -24.0415625 40.3471875 -23 40 C-22.67 39.01 -22.34 38.02 -22 37 C-21.34 37 -20.68 37 -20 37 C-20 36.01 -20 35.02 -20 34 C-18.02 33.505 -18.02 33.505 -16 33 C-16 31.68 -16 30.36 -16 29 C-15.34 29 -14.68 29 -14 29 C-14 27.68 -14 26.36 -14 25 C-13.34 25 -12.68 25 -12 25 C-11.91363281 24.30132812 -11.82726562 23.60265625 -11.73828125 22.8828125 C-11.31795176 20.16031137 -10.86256547 17.61803791 -10 15 C-7.375 13.375 -7.375 13.375 -5 13 C-5.061875 12.319375 -5.12375 11.63875 -5.1875 10.9375 C-4.94511191 7.1400866 -3.69233523 4.38467047 -2 1 C-1.34 0.67 -0.68 0.34 0 0 Z " fill="#F5E063" transform="translate(445,315)"/>
<path d="M0 0 C0.33 0.99 0.66 1.98 1 3 C-1.3125 6.1875 -1.3125 6.1875 -4 9 C-4.66 9 -5.32 9 -6 9 C-6.33 9.99 -6.66 10.98 -7 12 C-8.97956942 13.69088222 -10.97945196 15.35830472 -13 17 C-13.33 17.66 -13.66 18.32 -14 19 C-14.99 19 -15.98 19 -17 19 C-17.99 21.97 -18.98 24.94 -20 28 C-21.32 28 -22.64 28 -24 28 C-23.67 29.32 -23.34 30.64 -23 32 C-24.98 32.66 -26.96 33.32 -29 34 C-29 34.66 -29 35.32 -29 36 C-29.66 35.67 -30.32 35.34 -31 35 C-29.72954304 33.24972675 -28.45861894 31.49979256 -27.1875 29.75 C-26.47980469 28.77546875 -25.77210937 27.8009375 -25.04296875 26.796875 C-24.03169922 25.41242188 -24.03169922 25.41242188 -23 24 C-22.45988281 23.22140625 -21.91976562 22.4428125 -21.36328125 21.640625 C-20.91339844 21.09921875 -20.46351562 20.5578125 -20 20 C-19.34 20 -18.68 20 -18 20 C-17.74621582 19.42024414 -17.49243164 18.84048828 -17.23095703 18.24316406 C-15.86241385 15.74927777 -14.33002231 14.10256164 -12.3046875 12.109375 C-11.58925781 11.40039062 -10.87382813 10.69140625 -10.13671875 9.9609375 C-9.39035156 9.23132813 -8.64398438 8.50171875 -7.875 7.75 C-6.74384766 6.63238281 -6.74384766 6.63238281 -5.58984375 5.4921875 C-3.73099228 3.6568658 -1.86762995 1.8263809 0 0 Z " fill="#F8E256" transform="translate(115,84)"/>
<path d="M0 0 C6.13621223 0.35168015 10.50098644 1.13094945 16 4 C18.67583044 4.52247054 21.2770413 4.76526218 24 5 C24 5.66 24 6.32 24 7 C25.7015625 6.87625 25.7015625 6.87625 27.4375 6.75 C32.56486617 6.71331044 36.52078524 8.6774442 41 11 C37.85692028 12.00124452 35.77717265 11.96081154 32.578125 11.21484375 C31.72436279 11.01656982 30.87060059 10.8182959 29.9909668 10.61401367 C29.08644775 10.39076416 28.18192871 10.16751465 27.25 9.9375 C25.85938354 9.60165894 25.85938354 9.60165894 24.44067383 9.2590332 C16.02628707 7.15128171 8.01283886 4.29807087 0 1 C0 0.67 0 0.34 0 0 Z " fill="#F7DE51" transform="translate(176,432)"/>
<path d="M0 0 C0 0.33 0 0.66 0 1 C-0.78246094 1.13277344 -1.56492188 1.26554687 -2.37109375 1.40234375 C-3.38300781 1.57894531 -4.39492187 1.75554688 -5.4375 1.9375 C-6.44683594 2.11152344 -7.45617187 2.28554688 -8.49609375 2.46484375 C-10.9287438 2.74751097 -10.9287438 2.74751097 -12 4 C-14.93569391 4.54179306 -17.864063 5.03866439 -20.8125 5.5 C-22.44424763 5.75892617 -24.07576709 6.01929517 -25.70703125 6.28125 C-26.4338208 6.39533203 -27.16061035 6.50941406 -27.90942383 6.62695312 C-29.32781146 6.88005324 -30.73754996 7.18618012 -32.13452148 7.53881836 C-34.2357675 8.05828619 -36.0893449 8.09851092 -38.25 8.0625 C-40.10625 8.0315625 -40.10625 8.0315625 -42 8 C-38.59505876 5.73003918 -35.3536925 4.9297403 -31.4375 4 C-30.7158667 3.82629883 -29.9942334 3.65259766 -29.25073242 3.47363281 C-27.81412752 3.13068783 -26.37671992 2.79108551 -24.93847656 2.45507812 C-23.34911792 2.08195917 -21.763769 1.69179836 -20.1796875 1.296875 C-13.45946723 -0.25565113 -6.87177701 -0.19387459 0 0 Z " fill="#F6E156" transform="translate(236,33)"/>
<path d="M0 0 C0.9075 0.804375 1.815 1.60875 2.75 2.4375 C12.65839724 10.83982086 22.09407483 16.94160829 34 22 C31 24 31 24 29.0703125 23.78125 C26.78598541 22.91923978 24.9175077 21.8357845 22.875 20.5 C20.93246538 19.23918508 19.07173276 18.03586638 17 17 C17 16.34 17 15.68 17 15 C16.154375 14.7525 15.30875 14.505 14.4375 14.25 C10.55522396 12.83826326 7.46943033 11.24492551 4 9 C3.67 8.01 3.34 7.02 3 6 C2.01 5.67 1.02 5.34 0 5 C0 3.35 0 1.7 0 0 Z " fill="#E2C725" transform="translate(162,366)"/>
<path d="M0 0 C-8.91226535 3.66827329 -17.80301399 6.6434084 -27.1875 8.875 C-28.08364014 9.08987061 -28.97978027 9.30474121 -29.90307617 9.52612305 C-34.04592865 10.47618896 -37.73013488 11.10624128 -42 11 C-42 10.01 -42 9.02 -42 8 C-40.78183594 7.90203125 -39.56367188 7.8040625 -38.30859375 7.703125 C-36.68481554 7.55294898 -35.06112171 7.40185862 -33.4375 7.25 C-32.63763672 7.188125 -31.83777344 7.12625 -31.01367188 7.0625 C-25.32677389 6.50541612 -21.82966917 5.02305976 -17 2 C-14.67843403 1.59270772 -12.3431213 1.25561323 -10 1 C-8.948125 0.62875 -7.89625 0.2575 -6.8125 -0.125 C-3.83654078 -1.05085398 -2.87096295 -0.87296946 0 0 Z " fill="#F7E36B" transform="translate(330,433)"/>
<path d="M0 0 C0 0.33 0 0.66 0 1 C-1.14597656 1.06058594 -2.29195313 1.12117188 -3.47265625 1.18359375 C-5.00261297 1.26806989 -6.53256041 1.35271427 -8.0625 1.4375 C-9.19075195 1.49647461 -9.19075195 1.49647461 -10.34179688 1.55664062 C-14.94698741 1.81580719 -19.44366724 2.2799421 -24 3 C-24 2.01 -24 1.02 -24 0 C-30.93 0 -37.86 0 -45 0 C-45 -0.33 -45 -0.66 -45 -1 C-30.26223769 -3.24345328 -14.7742385 -1.28829167 0 0 Z " fill="#F8E363" transform="translate(282,33)"/>
<path d="M0 0 C0.33 0 0.66 0 1 0 C1 2.64 1 5.28 1 8 C0.01 7.67 -0.98 7.34 -2 7 C-2 8.65 -2 10.3 -2 12 C-2.66 12 -3.32 12 -4 12 C-4.28875 13.2375 -4.5775 14.475 -4.875 15.75 C-6.52962182 22.18715887 -8.12577183 24.42438285 -14 28 C-14.66 27.67 -15.32 27.34 -16 27 C-15.5153125 26.3915625 -15.030625 25.783125 -14.53125 25.15625 C-8.50068195 17.27012255 -4.2227069 8.95079096 0 0 Z " fill="#E2C522" transform="translate(340,338)"/>
<path d="M0 0 C0.66 0.33 1.32 0.66 2 1 C0.1875 3 0.1875 3 -2 5 C-2.99 5 -3.98 5 -5 5 C-5.33 5.99 -5.66 6.98 -6 8 C-8.14453125 9.0625 -8.14453125 9.0625 -10.8125 10 C-14.39700583 11.27072585 -16.9871803 12.69953897 -20 15 C-20.66 15 -21.32 15 -22 15 C-22 15.66 -22 16.32 -22 17 C-23.32 17 -24.64 17 -26 17 C-26 16.34 -26 15.68 -26 15 C-24.47460938 13.82666016 -24.47460938 13.82666016 -22.34375 12.5390625 C-21.56773437 12.06726563 -20.79171875 11.59546875 -19.9921875 11.109375 C-19.16976562 10.61953125 -18.34734375 10.1296875 -17.5 9.625 C-16.70851562 9.14289062 -15.91703125 8.66078125 -15.1015625 8.1640625 C-10.17772549 5.19361656 -5.24886807 2.35734561 0 0 Z " fill="#F7E364" transform="translate(162,52)"/>
<path d="M0 0 C2.31 0.33 4.62 0.66 7 1 C7 2.65 7 4.3 7 6 C7.598125 6.103125 8.19625 6.20625 8.8125 6.3125 C11.31258286 7.09824033 12.37535082 7.96918853 14 10 C14 10.66 14 11.32 14 12 C15.65 11.67 17.3 11.34 19 11 C18.67 12.32 18.34 13.64 18 15 C18.61875 15.0825 19.2375 15.165 19.875 15.25 C22 16 22 16 23.25 18.0625 C23.4975 18.701875 23.745 19.34125 24 20 C20.21908383 18.65686815 17.34348084 16.97035316 14.1875 14.5 C13.39730469 13.8915625 12.60710937 13.283125 11.79296875 12.65625 C11.20128906 12.1096875 10.60960938 11.563125 10 11 C10 10.34 10 9.68 10 9 C7.525 8.01 7.525 8.01 5 7 C5 6.34 5 5.68 5 5 C4.34 5 3.68 5 3 5 C1.375 2.5 1.375 2.5 0 0 Z " fill="#F6DD53" transform="translate(110,389)"/>
<path d="M0 0 C13.40477977 0.85109713 26.40854066 4.43893188 39 9 C35.16404885 10.27865038 32.27079924 9.45186114 28.4375 8.625 C27.75236328 8.48578125 27.06722656 8.3465625 26.36132812 8.203125 C21.30044643 7.15022321 21.30044643 7.15022321 19 6 C19 5.34 19 4.68 19 4 C18.443125 4.02320313 17.88625 4.04640625 17.3125 4.0703125 C11.8234393 4.20012137 7.24606298 3.65665147 2 2 C1.34 1.34 0.68 0.68 0 0 Z " fill="#F6E05F" transform="translate(282,34)"/>
<path d="M0 0 C6.94307569 0.94678305 11.5774001 3.92265848 17.46484375 7.5625 C19.92585048 8.95795528 22.36630154 9.97965987 25 11 C26.6829392 11.97236487 28.35443434 12.96564444 30 14 C28 15 28 15 25.7421875 14.3203125 C16.74766398 10.57055201 8.41110454 5.89936165 0 1 C0 0.67 0 0.34 0 0 Z " fill="#F6E155" transform="translate(146,417)"/>
<path d="M0 0 C-19.23404255 14 -19.23404255 14 -24 14 C-24 13.01 -24 12.02 -24 11 C-22.68 11 -21.36 11 -20 11 C-20 10.34 -20 9.68 -20 9 C-18.68 9 -17.36 9 -16 9 C-16 8.01 -16 7.02 -16 6 C-14.68 5.34 -13.36 4.68 -12 4 C-12 3.67 -12 3.34 -12 3 C-10.35 3 -8.7 3 -7 3 C-7 2.01 -7 1.02 -7 0 C-2.25 -1.125 -2.25 -1.125 0 0 Z " fill="#F4DE43" transform="translate(372,410)"/>
<path d="M0 0 C1.32 0.33 2.64 0.66 4 1 C4 1.66 4 2.32 4 3 C4.928125 3.2165625 4.928125 3.2165625 5.875 3.4375 C8 4 8 4 10 5 C10 5.66 10 6.32 10 7 C10.71542969 7.24492188 11.43085938 7.48984375 12.16796875 7.7421875 C15.34583121 9.15359676 17.63646999 10.91281519 20.3125 13.125 C21.19550781 13.84945312 22.07851563 14.57390625 22.98828125 15.3203125 C23.98408203 16.15175781 23.98408203 16.15175781 25 17 C23.68 17.33 22.36 17.66 21 18 C20.7525 17.360625 20.505 16.72125 20.25 16.0625 C19.21173571 13.82450832 19.21173571 13.82450832 17.0625 13.4375 C16.0415625 13.2209375 16.0415625 13.2209375 15 13 C14 12 13 11 12 10 C9.65508072 8.40837085 7.26448549 6.90740478 4.86328125 5.40234375 C4.24839844 4.93957031 3.63351562 4.47679688 3 4 C3 3.34 3 2.68 3 2 C2.01 2 1.02 2 0 2 C0 1.34 0 0.68 0 0 Z " fill="#F4E472" transform="translate(360,62)"/>
<path d="M0 0 C1.95806653 2.9370998 2.37664854 4.39694844 3.0625 7.75 C5.08096452 15.66450562 9.6251749 22.20388805 14 29 C13.34 29.33 12.68 29.66 12 30 C11.34 29.67 10.68 29.34 10 29 C10 27.68 10 26.36 10 25 C9.34 25 8.68 25 8 25 C7.32845067 23.71086513 6.66291141 22.41859796 6 21.125 C5.62875 20.40570313 5.2575 19.68640625 4.875 18.9453125 C4 17 4 17 4 15 C3.34 15 2.68 15 2 15 C1.66223316 13.2508503 1.32996329 11.50063855 1 9.75 C0.814375 8.77546875 0.62875 7.8009375 0.4375 6.796875 C0 4 0 4 0 0 Z " fill="#DAC024" transform="translate(143,330)"/>
<path d="M0 0 C1.32 0.33 2.64 0.66 4 1 C3.04882866 2.1725131 2.08882991 3.33787015 1.125 4.5 C0.32449219 5.47453125 0.32449219 5.47453125 -0.4921875 6.46875 C-0.98976563 6.9740625 -1.48734375 7.479375 -2 8 C-2.66 8 -3.32 8 -4 8 C-4 8.66 -4 9.32 -4 10 C-4.66 10 -5.32 10 -6 10 C-6.66 11.32 -7.32 12.64 -8 14 C-8.66 14 -9.32 14 -10 14 C-10 13.01 -10 12.02 -10 11 C-10.66 11 -11.32 11 -12 11 C-12 10.34 -12 9.68 -12 9 C-10.68 9.33 -9.36 9.66 -8 10 C-7.67 8.68 -7.34 7.36 -7 6 C-5.68 6 -4.36 6 -3 6 C-3 5.01 -3 4.02 -3 3 C-2.01 3 -1.02 3 0 3 C0 2.01 0 1.02 0 0 Z " fill="#F7DE47" transform="translate(404,377)"/>
<path d="M0 0 C0.33 0 0.66 0 1 0 C1.43757842 21.1739335 1.43757842 21.1739335 -3 31 C-3.66 31 -4.32 31 -5 31 C-4.24294671 23.68181818 -4.24294671 23.68181818 -3.03125 20.28125 C-1.76179115 16.24206276 -1.30905289 12.32321644 -0.875 8.125 C-0.78863281 7.34125 -0.70226562 6.5575 -0.61328125 5.75 C-0.4029851 3.83396841 -0.20067256 1.9170634 0 0 Z " fill="#E7C924" transform="translate(346,307)"/>
<path d="M0 0 C4.17383395 3.92831431 7.89394426 8.16479983 11 13 C11 13.66 11 14.32 11 15 C11.66 15 12.32 15 13 15 C13.66 16.65 14.32 18.3 15 20 C14.01 19.67 13.02 19.34 12 19 C12 18.34 12 17.68 12 17 C11.34 17 10.68 17 10 17 C8.38182208 15.13835311 6.90358811 13.288129 5.4375 11.3125 C4.8197168 10.51682617 4.8197168 10.51682617 4.18945312 9.70507812 C1.80133932 6.51962354 0.42053389 3.97662751 0 0 Z " fill="#F6E057" transform="translate(411,106)"/>
<path d="M0 0 C0.66 0 1.32 0 2 0 C1.68383092 6.16529701 -1.49215061 10.17268433 -5 15 C-5.66 14.67 -6.32 14.34 -7 14 C-7 11.69 -7 9.38 -7 7 C-6.360625 6.896875 -5.72125 6.79375 -5.0625 6.6875 C-4.381875 6.460625 -3.70125 6.23375 -3 6 C-2.67 5.01 -2.34 4.02 -2 3 C-1.34 3 -0.68 3 0 3 C0 2.01 0 1.02 0 0 Z " fill="#F8DD46" transform="translate(425,349)"/>
<path d="M0 0 C0.33 0 0.66 0 1 0 C1.91144418 7.89918285 -1.19500511 13.20536627 -5 20 C-6.76982406 15.85264121 -5.05314714 12.30447511 -3.625 8.3125 C-3.39039063 7.62349609 -3.15578125 6.93449219 -2.9140625 6.22460938 C-1.16171288 1.16171288 -1.16171288 1.16171288 0 0 Z " fill="#F7E25D" transform="translate(60,164)"/>
<path d="M0 0 C8.69257675 0.03924414 15.35032677 3.07924272 23 7 C19.95784651 8.52107675 18.05640447 7.26863995 14.875 6.25 C13.71355469 5.87875 12.55210937 5.5075 11.35546875 5.125 C7.52787341 3.84170843 3.75800384 2.473727 0 1 C0 0.67 0 0.34 0 0 Z " fill="#F6E26C" transform="translate(176,432)"/>
<path d="M0 0 C0.33 1.32 0.66 2.64 1 4 C0.195625 4.45375 -0.60875 4.9075 -1.4375 5.375 C-4.08856572 6.74725665 -4.08856572 6.74725665 -5 9 C-5.66 9 -6.32 9 -7 9 C-7.309375 9.9590625 -7.309375 9.9590625 -7.625 10.9375 C-9 13 -9 13 -12.125 13.75 C-13.548125 13.87375 -13.548125 13.87375 -15 14 C-11.8122776 10.67945583 -8.38557792 7.68545967 -4.90234375 4.68359375 C-3.2005794 3.17751483 -1.58645745 1.62599533 0 0 Z " fill="#E2C623" transform="translate(323,366)"/>
<path d="M0 0 C0.66 0 1.32 0 2 0 C0.41981375 7.84449602 -3.80895282 15.90149056 -10 21 C-10 20.01 -10 19.02 -10 18 C-9.34 18 -8.68 18 -8 18 C-7.87625 17.4225 -7.7525 16.845 -7.625 16.25 C-6.99351176 13.97664233 -6.11141809 12.0746471 -5 10 C-4.34 10 -3.68 10 -3 10 C-3.33 9.01 -3.66 8.02 -4 7 C-2.625 5 -2.625 5 -1 3 C-0.67 2.01 -0.34 1.02 0 0 Z " fill="#2A1B00" transform="translate(337,340)"/>
<path d="M0 0 C1.99954746 -0.04254356 4.00041636 -0.04080783 6 0 C6.33 0.33 6.66 0.66 7 1 C9.69235776 1.23678716 12.36498156 1.42198025 15.0625 1.5625 C16.20041992 1.62727539 16.20041992 1.62727539 17.36132812 1.69335938 C19.24065438 1.79973633 21.12030244 1.90039934 23 2 C17.75223435 5.01416288 12.12475893 4.79614624 6.34765625 3.32421875 C4.20193236 2.60897745 2.09547589 1.85033804 0 1 C0 0.67 0 0.34 0 0 Z " fill="#D9C129" transform="translate(225,331)"/>
<path d="M0 0 C0.33 0 0.66 0 1 0 C1.03738281 0.70125 1.07476562 1.4025 1.11328125 2.125 C1.43547961 6.77476456 1.77728758 10.97578116 3.5625 15.3125 C4.95741087 18.89074962 5.283924 21.21434671 5 25 C-0.16188665 19.83811335 -0.05440928 12.51020339 -0.0625 5.625 C-0.04653244 3.74995225 -0.02730462 1.87491693 0 0 Z " fill="#DDC325" transform="translate(210,297)"/>
<path d="M0 0 C0.578125 1.86328125 0.578125 1.86328125 1 4 C0.03567924 5.68756133 -0.9731657 7.3497306 -2 9 C-3.1132698 11.96539131 -4.07002489 14.97263423 -5 18 C-5.66 18 -6.32 18 -7 18 C-6.44380331 13.3110507 -5.11817327 9.80075733 -2.9375 5.625 C-2.38964844 4.56539062 -1.84179688 3.50578125 -1.27734375 2.4140625 C-0.85582031 1.61742187 -0.43429688 0.82078125 0 0 Z " fill="#F7E465" transform="translate(68,146)"/>
<path d="M0 0 C4.84111765 0.58838199 8.96071195 2.07653116 13.375 4.0625 C14.01566406 4.34416016 14.65632813 4.62582031 15.31640625 4.91601562 C16.88029659 5.60459421 18.44053941 6.30144711 20 7 C18.02 7.99 18.02 7.99 16 9 C16 8.34 16 7.68 16 7 C15.29488281 6.88785156 14.58976562 6.77570312 13.86328125 6.66015625 C10.72610488 5.93685092 8.09872094 4.80542309 5.1875 3.4375 C3.72376953 2.75494141 3.72376953 2.75494141 2.23046875 2.05859375 C1.49441406 1.70925781 0.75835937 1.35992187 0 1 C0 0.67 0 0.34 0 0 Z " fill="#F6E05F" transform="translate(321,44)"/>
<path d="M0 0 C-3.58375776 3.58375776 -9.13500141 3.92387761 -14.0625 4.125 C-14.701875 4.08375 -15.34125 4.0425 -16 4 C-16 3.01 -16 2.02 -16 1 C-10.65097076 0.40801257 -5.39115154 -0.14187241 0 0 Z " fill="#F5E054" transform="translate(304,440)"/>
<path d="M0 0 C-5.59579736 3.39374748 -10.56917213 5.71383443 -17 7 C-13.91427535 2.30969853 -11.425821 1.18381549 -6 0 C-3 -1 -3 -1 0 0 Z " fill="#F5E15F" transform="translate(347,425)"/>
<path d="M0 0 C1.9375 0.6875 1.9375 0.6875 4 2 C5.46610641 6.15396816 5.07380228 10.64566525 5 15 C3.25050228 12.37575342 2.34610019 10.44272784 1.375 7.5 C0.98441406 6.33984375 0.98441406 6.33984375 0.5859375 5.15625 C0 3 0 3 0 0 Z " fill="#F9E25A" transform="translate(54,297)"/>
<path d="M0 0 C1.48828125 0.98828125 1.48828125 0.98828125 3 3 C3.21714241 5.81127043 3.28284276 8.3883345 3.1875 11.1875 C3.16719727 12.31188477 3.16719727 12.31188477 3.14648438 13.45898438 C3.11118539 15.30629767 3.05737917 17.15324066 3 19 C2.67 19 2.34 19 2 19 C0.67611771 12.56971459 -0.24794402 6.5705166 0 0 Z " fill="#F6E25A" transform="translate(48,266)"/>
<path d="M0 0 C0.66 0.33 1.32 0.66 2 1 C0.1875 3 0.1875 3 -2 5 C-2.99 5 -3.98 5 -5 5 C-5.33 5.99 -5.66 6.98 -6 8 C-7.98 8.33 -9.96 8.66 -12 9 C-10.68884949 5.06654848 -9.15787222 4.67625924 -5.5625 2.75 C-4.57378906 2.20859375 -3.58507812 1.6671875 -2.56640625 1.109375 C-1.71949219 0.74328125 -0.87257812 0.3771875 0 0 Z " fill="#F5E054" transform="translate(162,52)"/>
<path d="M0 0 C0.66 0 1.32 0 2 0 C2.33 1.32 2.66 2.64 3 4 C0.36 5.98 -2.28 7.96 -5 10 C-5.66 9.67 -6.32 9.34 -7 9 C-5.88266271 7.49428343 -4.75589965 5.99555708 -3.625 4.5 C-2.99851562 3.6646875 -2.37203125 2.829375 -1.7265625 1.96875 C-1.15679687 1.3190625 -0.58703125 0.669375 0 0 Z " fill="#EACA1E" transform="translate(331,356)"/>
<path d="M0 0 C0.33 0.99 0.66 1.98 1 3 C-1.3125 6.1875 -1.3125 6.1875 -4 9 C-4.66 9 -5.32 9 -6 9 C-6.33 9.99 -6.66 10.98 -7 12 C-7.66 11.67 -8.32 11.34 -9 11 C-6.36113346 6.7973607 -3.63559661 3.43361902 0 0 Z " fill="#F5DD3D" transform="translate(115,84)"/>
<path d="M0 0 C-0.33 0.99 -0.66 1.98 -1 3 C-6.94 3 -12.88 3 -19 3 C-19.33 2.34 -19.66 1.68 -20 1 C-19.18015625 1.01160156 -18.3603125 1.02320313 -17.515625 1.03515625 C-15.89914063 1.04869141 -15.89914063 1.04869141 -14.25 1.0625 C-13.18265625 1.07410156 -12.1153125 1.08570313 -11.015625 1.09765625 C-7.18997643 0.97376867 -3.85830866 0 0 0 Z " fill="#281D01" transform="translate(252,333)"/>
<path d="M0 0 C0.33 0.66 0.66 1.32 1 2 C1.99 2.33 2.98 2.66 4 3 C4 3.99 4 4.98 4 6 C4.66 6 5.32 6 6 6 C6.66 9.3 7.32 12.6 8 16 C5.26352641 13.26352641 3.99298372 11.39124643 2.3125 8 C1.87550781 7.13375 1.43851562 6.2675 0.98828125 5.375 C0 3 0 3 0 0 Z " fill="#F5E267" transform="translate(65,326)"/>
<path d="M0 0 C1.32 0 2.64 0 4 0 C4 0.99 4 1.98 4 3 C4.99 3 5.98 3 7 3 C7 4.32 7 5.64 7 7 C7.66 7.33 8.32 7.66 9 8 C9 8.66 9 9.32 9 10 C8.34 10 7.68 10 7 10 C7 9.34 7 8.68 7 8 C6.34 8 5.68 8 5 8 C2 4.53846154 2 4.53846154 2 2 C1.34 2 0.68 2 0 2 C0 1.34 0 0.68 0 0 Z " fill="#F6DE4E" transform="translate(95,373)"/>
<path d="M0 0 C1.28497537 3.85492611 0.4052209 5.40346836 -0.9375 9.1875 C-1.31777344 10.27417969 -1.69804687 11.36085938 -2.08984375 12.48046875 C-2.39019531 13.31191406 -2.69054687 14.14335937 -3 15 C-3.33 15 -3.66 15 -4 15 C-4.05447047 13.58376784 -4.09300508 12.16691809 -4.125 10.75 C-4.14820313 9.96109375 -4.17140625 9.1721875 -4.1953125 8.359375 C-3.9828378 5.79268059 -3.28654105 4.2083933 -2 2 C-1.34 2 -0.68 2 0 2 C0 1.34 0 0.68 0 0 Z " fill="#F4E25C" transform="translate(451,297)"/>
<path d="M0 0 C0.99 0 1.98 0 3 0 C3.185625 0.9590625 3.185625 0.9590625 3.375 1.9375 C3.684375 2.9584375 3.684375 2.9584375 4 4 C4.66 4.33 5.32 4.66 6 5 C6 5.66 6 6.32 6 7 C6.66 7 7.32 7 8 7 C8 8.65 8 10.3 8 12 C4.74451247 8.97704729 2.31022942 5.79537691 0 2 C0 1.34 0 0.68 0 0 Z " fill="#F7E263" transform="translate(80,353)"/>
<path d="M0 0 C1.09651823 3.41139003 0.94215473 6.20655581 0.5625 9.75 C0.40974609 11.22726563 0.40974609 11.22726563 0.25390625 12.734375 C0.12822266 13.85585937 0.12822266 13.85585937 0 15 C-0.99 15.33 -1.98 15.66 -3 16 C-2.40984815 10.49191603 -1.43336231 5.35121931 0 0 Z " fill="#F8E462" transform="translate(53,184)"/>
<path d="M0 0 C3.5682233 5.35233495 4.32665309 11.63026469 4 18 C0.67402719 14.46894039 0.53229836 11.49764465 0.3125 6.75 C0.24675781 5.48671875 0.18101562 4.2234375 0.11328125 2.921875 C0.07589844 1.95765625 0.03851563 0.9934375 0 0 Z " fill="#F8E36B" transform="translate(452,184)"/>
<path d="M0 0 C0.99 0.33 1.98 0.66 3 1 C-0.17320782 4.53586014 -2.16743695 6.58578031 -7 7 C-7 6.34 -7 5.68 -7 5 C-4 3 -4 3 -1 3 C-0.67 2.01 -0.34 1.02 0 0 Z " fill="#E9CC26" transform="translate(256,326)"/>
<path d="M0 0 C1 2 1 2 0.07421875 4.78515625 C-0.38339844 5.86667969 -0.84101563 6.94820313 -1.3125 8.0625 C-1.76238281 9.14660156 -2.21226562 10.23070312 -2.67578125 11.34765625 C-4 14 -4 14 -6 15 C-5.46147465 9.72245155 -4.34981281 5.69962561 -2 1 C-1.34 0.67 -0.68 0.34 0 0 Z " fill="#F8E377" transform="translate(445,315)"/>
<path d="M0 0 C1.91595968 -0.08133791 3.83291932 -0.13934367 5.75 -0.1875 C7.35101563 -0.23970703 7.35101563 -0.23970703 8.984375 -0.29296875 C12.30027855 0.02917214 13.59016673 0.77148914 16 3 C13.70774565 2.88628503 11.41617612 2.75869036 9.125 2.625 C7.84882813 2.55539062 6.57265625 2.48578125 5.2578125 2.4140625 C2 2 2 2 0 0 Z " fill="#382B03" transform="translate(212,393)"/>
<path d="M0 0 C0.33 0 0.66 0 1 0 C1 1.98 1 3.96 1 6 C0.360625 6.20625 -0.27875 6.4125 -0.9375 6.625 C-3.34925077 7.89538209 -3.34925077 7.89538209 -3.75 11.125 C-3.8325 12.07375 -3.915 13.0225 -4 14 C-5.45333364 9.63999908 -3.8014524 6.74433757 -1.9375 2.6875 C-1 1 -1 1 0 0 Z " fill="#F7D82A" transform="translate(446,308)"/>
<path d="M0 0 C0.33 0 0.66 0 1 0 C1 1.98 1 3.96 1 6 C0.01 6.33 -0.98 6.66 -2 7 C-2 7.66 -2 8.32 -2 9 C-2.99 9 -3.98 9 -5 9 C-3.50164236 5.88802644 -1.86022073 2.91164984 0 0 Z " fill="#F9E353" transform="translate(83,120)"/>
<path d="M0 0 C-1.75864246 2.1793144 -2.69396 2.93686419 -5.48046875 3.51171875 C-6.82044922 3.59873047 -6.82044922 3.59873047 -8.1875 3.6875 C-9.08855469 3.75324219 -9.98960937 3.81898437 -10.91796875 3.88671875 C-11.60503906 3.92410156 -12.29210937 3.96148437 -13 4 C-10.81006393 1.81006393 -9.4012702 1.27802011 -6.5 0.3125 C-5.7059375 0.04050781 -4.911875 -0.23148438 -4.09375 -0.51171875 C-2 -1 -2 -1 0 0 Z " fill="#F7E563" transform="translate(192,42)"/>
<path d="M0 0 C5.99291003 0.41330414 9.25036599 1.31903365 14 5 C13.01 5.495 13.01 5.495 12 6 C9.92803369 5.26821134 7.8891448 4.44100997 5.875 3.5625 C4.77929688 3.08941406 3.68359375 2.61632812 2.5546875 2.12890625 C1.71164063 1.75636719 0.86859375 1.38382812 0 1 C0 0.67 0 0.34 0 0 Z " fill="#F6E172" transform="translate(162,426)"/>
<path d="M0 0 C2.40034102 3.60051153 4.32187705 6.96144535 3.625 11.375 C3.41875 11.91125 3.2125 12.4475 3 13 C0.41073669 10.41073669 0.62601957 8.97294721 0.375 5.375 C0.30023438 4.37210938 0.22546875 3.36921875 0.1484375 2.3359375 C0.09945313 1.56507813 0.05046875 0.79421875 0 0 Z " fill="#F4E56A" transform="translate(448,171)"/>
<path d="M0 0 C3.28465896 2.79196011 5.01321958 6.23196817 7 10 C7 10.66 7 11.32 7 12 C6.34 12 5.68 12 5 12 C4.67 10.35 4.34 8.7 4 7 C3.34 7 2.68 7 2 7 C0 4 0 4 0 0 Z " fill="#F6E36C" transform="translate(426,126)"/>
<path d="M0 0 C3 1 3 1 4.203125 2.77734375 C4.54859375 3.49019531 4.8940625 4.20304687 5.25 4.9375 C5.78367187 6.00291016 5.78367187 6.00291016 6.328125 7.08984375 C6.54984375 7.72019531 6.7715625 8.35054688 7 9 C6.67 9.66 6.34 10.32 6 11 C4.9944239 9.54550599 3.99569565 8.08627557 3 6.625 C2.443125 5.81289063 1.88625 5.00078125 1.3125 4.1640625 C0 2 0 2 0 0 Z " fill="#F6E36D" transform="translate(73,342)"/>
<path d="M0 0 C0.20086443 3.71599191 0.1519437 4.77208445 -2 8 C-2.66 8 -3.32 8 -4 8 C-4.1875 5.125 -4.1875 5.125 -4 2 C-1 0 -1 0 0 0 Z " fill="#F6DB47" transform="translate(439,328)"/>
<path d="M0 0 C0.66 0 1.32 0 2 0 C1.67 1.98 1.34 3.96 1 6 C-0.32 6 -1.64 6 -3 6 C-2.42655063 3.13275314 -2.1385485 2.1385485 0 0 Z " fill="#F6DF41" transform="translate(94,106)"/>
<path d="M0 0 C7.57142857 2.85714286 7.57142857 2.85714286 10 7 C8.35 7 6.7 7 5 7 C4.67 5.68 4.34 4.36 4 3 C2.68 2.67 1.36 2.34 0 2 C0 1.34 0 0.68 0 0 Z " fill="#F7DD57" transform="translate(375,73)"/>
<path d="M0 0 C0.33 0.66 0.66 1.32 1 2 C0.34 2 -0.32 2 -1 2 C-1.66 3.65 -2.32 5.3 -3 7 C-4.65 7 -6.3 7 -8 7 C-5.42215154 4.35247996 -3.08351902 2.05567935 0 0 Z " fill="#F8E561" transform="translate(134,69)"/>
<path d="M0 0 C-1.28813342 0.83878455 -2.58063256 1.67086783 -3.875 2.5 C-4.59429687 2.9640625 -5.31359375 3.428125 -6.0546875 3.90625 C-8 5 -8 5 -10 5 C-10 4.01 -10 3.02 -10 2 C-8.68 2 -7.36 2 -6 2 C-6 1.34 -6 0.68 -6 0 C-2.25 -1.125 -2.25 -1.125 0 0 Z " fill="#F4E363" transform="translate(358,419)"/>
<path d="M0 0 C0.33 1.32 0.66 2.64 1 4 C-1.375 5.5625 -1.375 5.5625 -4 7 C-4.66 6.67 -5.32 6.34 -6 6 C-4.02 4.02 -2.04 2.04 0 0 Z " fill="#D9BC22" transform="translate(323,366)"/>
<path d="M0 0 C0 3.90838866 -1.50567876 5.11594107 -4 8 C-5.32 7.67 -6.64 7.34 -8 7 C-7.01 6.67 -6.02 6.34 -5 6 C-5 5.34 -5 4.68 -5 4 C-3.37373596 2.61767557 -1.7074998 1.28062485 0 0 Z " fill="#F7E66A" transform="translate(124,76)"/>
<path d="M0 0 C0.33 0.99 0.66 1.98 1 3 C-3.39453125 7.00390625 -3.39453125 7.00390625 -5 8 C-5.99 7.67 -6.98 7.34 -8 7 C-5.36 4.69 -2.72 2.38 0 0 Z " fill="#372A02" transform="translate(262,324)"/>
<path d="M0 0 C1.32 0 2.64 0 4 0 C3.34 1.65 2.68 3.3 2 5 C1.34 5 0.68 5 0 5 C-0.5625 3.0625 -0.5625 3.0625 -1 1 C-0.67 0.67 -0.34 0.34 0 0 Z M-3 3 C-1 4 -1 4 -1 4 Z " fill="#F9D71F" transform="translate(192,41)"/>
<path d="M0 0 C5.66153846 1.47692308 5.66153846 1.47692308 7.375 4.125 C7.684375 5.053125 7.684375 5.053125 8 6 C4.08597051 4.73058503 2.20927127 3.48832306 0 0 Z " fill="#F8E265" transform="translate(126,403)"/>
<path d="M0 0 C0.99 0 1.98 0 3 0 C3.625 2.3125 3.625 2.3125 4 5 C3.01 6.485 3.01 6.485 2 8 C1.34 7.67 0.68 7.34 0 7 C0 4.69 0 2.38 0 0 Z " fill="#FBDE38" transform="translate(418,356)"/>
<path d="M0 0 C-1.98 1.32 -3.96 2.64 -6 4 C-6.33 2.68 -6.66 1.36 -7 0 C-2.25 -1.125 -2.25 -1.125 0 0 Z " fill="#F7E25A" transform="translate(372,410)"/>
<path d="M0 0 C0.66 0 1.32 0 2 0 C2 0.66 2 1.32 2 2 C3.32 2 4.64 2 6 2 C6 3.32 6 4.64 6 6 C5.34 6 4.68 6 4 6 C4 5.34 4 4.68 4 4 C2.68 3.34 1.36 2.68 0 2 C0 1.34 0 0.68 0 0 Z " fill="#F5E360" transform="translate(104,383)"/>
<path d="M0 0 C0.66 0 1.32 0 2 0 C0.60667426 3.36720387 -0.9789286 4.9859524 -4 7 C-4.33 6.01 -4.66 5.02 -5 4 C-4.01 4 -3.02 4 -2 4 C-1.34 2.68 -0.68 1.36 0 0 Z " fill="#231800" transform="translate(325,361)"/>
<path d="M0 0 C2 1 2 1 2 1 Z M-6 1 C-4 1 -2 1 0 1 C-0.66 2.65 -1.32 4.3 -2 6 C-3.35432675 4.68799596 -4.68733482 3.35368596 -6 2 C-6 1.67 -6 1.34 -6 1 Z " fill="#EECC1F" transform="translate(221,321)"/>
<path d="M0 0 C0.66 0.33 1.32 0.66 2 1 C1.71125 1.556875 1.4225 2.11375 1.125 2.6875 C-0.0413253 5.08494645 -1.0339881 7.51596939 -2 10 C-3 8 -3 8 -2.44140625 6.0546875 C-2.15136719 5.33539063 -1.86132812 4.61609375 -1.5625 3.875 C-1.27503906 3.15054688 -0.98757812 2.42609375 -0.69140625 1.6796875 C-0.46324219 1.12539062 -0.23507813 0.57109375 0 0 Z " fill="#F7D624" transform="translate(56,180)"/>
<path d="M0 0 C2.31 1.65 4.62 3.3 7 5 C5 6 5 6 1 6 C0.67 4.02 0.34 2.04 0 0 Z " fill="#FADC58" transform="translate(385,80)"/>
<path d="M0 0 C3.63 0.33 7.26 0.66 11 1 C11 1.33 11 1.66 11 2 C5.06 2.495 5.06 2.495 -1 3 C-0.67 2.01 -0.34 1.02 0 0 Z " fill="#FAD61B" transform="translate(290,37)"/>
<path d="" fill="#FFFFFF" transform="translate(0,0)"/>
<path d="" fill="#FFFFFF" transform="translate(0,0)"/>
<path d="" fill="#FFFFFF" transform="translate(0,0)"/>
<path d="" fill="#FFFFFF" transform="translate(0,0)"/>
<path d="" fill="#FFFFFF" transform="translate(0,0)"/>
<path d="" fill="#FFFFFF" transform="translate(0,0)"/>
<path d="" fill="#FFFFFF" transform="translate(0,0)"/>
<path d="" fill="#FFFFFF" transform="translate(0,0)"/>
<path d="" fill="#FFFFFF" transform="translate(0,0)"/>
<path d="" fill="#FFFFFF" transform="translate(0,0)"/>
<path d="" fill="#FFFFFF" transform="translate(0,0)"/>
<path d="" fill="#FFFFFF" transform="translate(0,0)"/>
<path d="" fill="#FFFFFF" transform="translate(0,0)"/>
<path d="" fill="#FFFFFF" transform="translate(0,0)"/>
<path d="" fill="#FFFFFF" transform="translate(0,0)"/>
<path d="" fill="#FFFFFF" transform="translate(0,0)"/>
<path d="" fill="#FFFFFF" transform="translate(0,0)"/>
<path d="" fill="#FFFFFF" transform="translate(0,0)"/>
<path d="" fill="#FFFFFF" transform="translate(0,0)"/>
<path d="" fill="#FFFFFF" transform="translate(0,0)"/>
<path d="" fill="#FFFFFF" transform="translate(0,0)"/>
<path d="" fill="#FFFFFF" transform="translate(0,0)"/>
<path d="" fill="#FFFFFF" transform="translate(0,0)"/>
<path d="" fill="#FFFFFF" transform="translate(0,0)"/>
<path d="" fill="#FFFFFF" transform="translate(0,0)"/>
<path d="" fill="#FFFFFF" transform="translate(0,0)"/>
<path d="" fill="#FFFFFF" transform="translate(0,0)"/>
<path d="" fill="#FFFFFF" transform="translate(0,0)"/>
<path d="" fill="#FFFFFF" transform="translate(0,0)"/>
<path d="" fill="#FFFFFF" transform="translate(0,0)"/>
<path d="" fill="#FFFFFF" transform="translate(0,0)"/>
<path d="" fill="#FFFFFF" transform="translate(0,0)"/>
<path d="" fill="#FFFFFF" transform="translate(0,0)"/>
<path d="" fill="#FFFFFF" transform="translate(0,0)"/>
<path d="" fill="#FFFFFF" transform="translate(0,0)"/>
<path d="" fill="#FFFFFF" transform="translate(0,0)"/>
<path d="" fill="#FFFFFF" transform="translate(0,0)"/>
<path d="" fill="#FFFFFF" transform="translate(0,0)"/>
<path d="" fill="#FFFFFF" transform="translate(0,0)"/>
<path d="" fill="#FFFFFF" transform="translate(0,0)"/>
<path d="" fill="#FFFFFF" transform="translate(0,0)"/>
<path d="" fill="#FFFFFF" transform="translate(0,0)"/>
</svg>
